<svg xmlns="http://www.w3.org/2000/svg" xmlns:xlink="http://www.w3.org/1999/xlink"><symbol id="busket" viewBox="0 0 33 28">
<path d="M1.70156 8.98752C1.70821 8.85446 1.81803 8.75 1.95125 8.75H21.0487C21.182 8.75 21.2918 8.85446 21.2984 8.98751L22.1984 26.9875C22.2056 27.1303 22.0917 27.25 21.9488 27.25H1.05125C0.908275 27.25 0.794421 27.1303 0.801561 26.9875L1.70156 8.98752Z"/>
<path d="M16.4664 12C16.4894 11.5233 16.5 11.023 16.5 10.5C16.5 7.91305 16.2196 5.8705 15.4677 4.50676C15.1108 3.85955 14.6568 3.38328 14.071 3.05707C13.4773 2.72643 12.6577 2.5 11.5 2.5C10.3423 2.5 9.52274 2.72643 8.92899 3.05707C8.34317 3.38328 7.88917 3.85955 7.53231 4.50676C6.78036 5.8705 6.5 7.91305 6.5 10.5C6.5 11.0225 6.50018 11.522 6.50614 12H5.00598C5 11.5114 5 11.0104 5 10.5C5 5.25329 6.08333 1 11.5 1C16.9167 1 18 5.25329 18 10.5C18 11.0104 17.9905 11.5114 17.9684 12H16.4664Z"/>
<circle cx="24" cy="9" r="9" fill="#313133"/>
<path d="M23.556 8.08H23.928C24.168 8.08 24.4 8.06 24.624 8.02C24.856 7.972 25.06 7.896 25.236 7.792C25.412 7.68 25.552 7.532 25.656 7.348C25.768 7.164 25.824 6.936 25.824 6.664C25.824 6.448 25.784 6.256 25.704 6.088C25.624 5.912 25.512 5.764 25.368 5.644C25.232 5.524 25.072 5.432 24.888 5.368C24.712 5.296 24.524 5.26 24.324 5.26C23.964 5.26 23.656 5.352 23.4 5.536C23.152 5.72 22.964 5.976 22.836 6.304L21.78 5.932C21.988 5.42 22.32 5.02 22.776 4.732C23.24 4.436 23.772 4.288 24.372 4.288C24.724 4.288 25.056 4.34 25.368 4.444C25.688 4.54 25.968 4.684 26.208 4.876C26.448 5.068 26.636 5.308 26.772 5.596C26.916 5.884 26.988 6.216 26.988 6.592C26.988 6.832 26.948 7.056 26.868 7.264C26.796 7.472 26.692 7.66 26.556 7.828C26.428 7.996 26.272 8.14 26.088 8.26C25.904 8.38 25.704 8.468 25.488 8.524V8.548C25.736 8.596 25.964 8.68 26.172 8.8C26.388 8.92 26.572 9.072 26.724 9.256C26.876 9.432 26.996 9.636 27.084 9.868C27.172 10.1 27.216 10.352 27.216 10.624C27.216 11.048 27.136 11.424 26.976 11.752C26.816 12.072 26.604 12.34 26.34 12.556C26.076 12.772 25.772 12.936 25.428 13.048C25.084 13.16 24.732 13.216 24.372 13.216C23.7 13.216 23.108 13.064 22.596 12.76C22.084 12.456 21.712 11.984 21.48 11.344L22.56 10.984C22.688 11.352 22.904 11.652 23.208 11.884C23.52 12.116 23.9 12.232 24.348 12.232C24.564 12.232 24.772 12.2 24.972 12.136C25.18 12.064 25.364 11.96 25.524 11.824C25.684 11.688 25.812 11.52 25.908 11.32C26.004 11.12 26.052 10.884 26.052 10.612C26.052 10.316 25.988 10.068 25.86 9.868C25.732 9.668 25.564 9.508 25.356 9.388C25.156 9.26 24.928 9.172 24.672 9.124C24.416 9.068 24.164 9.04 23.916 9.04H23.556V8.08Z" fill="white"/>
</symbol><symbol id="search" viewBox="0 0 24 27">
<path d="M23.7131 24.8236L18.017 19.029C19.8744 17.0765 21.0508 14.4312 21.0508 11.4709C21.0508 5.55037 16.3453 0.76355 10.5254 0.76355C4.70548 0.76355 0 5.55037 0 11.4709C0 17.3915 4.70548 22.1783 10.5254 22.1783C12.7543 22.1783 14.8594 21.4225 16.593 20.2257L22.4129 26.1463C22.5987 26.3352 22.8463 26.3982 23.094 26.3982C23.3416 26.3982 23.5893 26.3352 23.775 26.1463C24.0846 25.7684 24.0846 25.2015 23.7131 24.8236ZM1.85742 11.4709C1.85742 6.62111 5.75802 2.65308 10.5254 2.65308C15.2928 2.65308 19.1934 6.62111 19.1934 11.4709C19.1934 16.3207 15.2928 20.2887 10.5254 20.2887C5.75802 20.2887 1.85742 16.3207 1.85742 11.4709Z" fill="#313133"/>
</symbol></svg>